Coordinates
version=1
nRows=19
nColumns=34
inDegrees=yes

Units are S.I. units (second, meters, Newtons, ...)
If the header above contains a line with 'inDegrees', this indicates whether rotational values are in degrees (yes) or radians (no).

endheader
time	pelvis_tilt	pelvis_list	pelvis_rotation	pelvis_tx	pelvis_ty	pelvis_tz	hip_flexion_r	hip_adduction_r	hip_rotation_r	knee_angle_r	ankle_angle_r	subtalar_angle_r	mtp_angle_r	hip_flexion_l	hip_adduction_l	hip_rotation_l	knee_angle_l	ankle_angle_l	subtalar_angle_l	mtp_angle_l	lumbar_extension	lumbar_bending	lumbar_rotation	arm_flex_r	arm_add_r	arm_rot_r	elbow_flex_r	pro_sup_r	arm_flex_l	arm_add_l	arm_rot_l	elbow_flex_l	pro_sup_l
      4.98333330	     11.33306798	    -13.14994324	    -24.82057973	      2.84397618	      1.04817173	      0.62026717	     -3.79823140	      3.30696237	     -7.40151564	     24.42781965	     16.09803367	     10.63933576	      0.00000000	     -1.04128448	      5.67116906	      7.07788836	     16.27393922	      8.56845183	    -11.85744181	      0.00000000	    -12.20813564	      2.56516828	      0.13644882	     22.45658987	      2.87799337	      5.65731890	     18.93676322	    115.87576617	     16.54364585	     -1.41653179	     23.01265517	     35.24664359	    115.42135446
      5.00000000	     11.47912323	    -13.58778630	    -24.94259367	      2.84383740	      1.04860100	      0.62059799	     -4.28915151	      3.74179131	     -7.12304530	     24.30268262	     17.04364861	     10.99780194	      0.00000000	     -0.78665624	      5.38675241	      6.92453194	     17.44358302	      8.52094416	    -12.41866441	      0.00000000	    -12.65494915	      2.75541863	      0.32871747	     22.55956446	      2.90052710	      5.62468172	     18.91436324	    115.94137131	     16.68628974	     -1.66056151	     23.23449609	     35.59280769	    115.40276733
      5.01666670	     11.64179763	    -13.98139433	    -24.96961053	      2.84420475	      1.04908041	      0.62125844	     -4.80395612	      4.13104520	     -6.96983643	     24.16426557	     17.94754143	     11.33118442	      0.00000000	     -0.56322904	      5.12778266	      6.86502547	     18.62820050	      8.59443201	    -12.97235009	      0.00000000	    -13.03287024	      2.85980730	      0.56782909	     22.58344238	      2.82226633	      5.66314690	     18.87797953	    116.02491456	     16.78513458	     -1.94529728	     23.51663165	     35.92164120	    115.39692333
      5.03333330	     11.76641820	    -14.32114879	    -24.86617916	      2.84458675	      1.04959006	      0.62153783	     -5.29686473	      4.50481337	     -6.89770568	     23.92041377	     18.80488468	     11.62485294	      0.00000000	     -0.23601379	      4.87322626	      6.77930108	     19.84945867	      8.54482737	    -13.44824998	      0.00000000	    -13.38459838	      2.96122691	      0.76136204	     22.66207834	      2.63260645	      5.71423769	     18.74787377	    116.11906531	     16.94509161	     -2.18672984	     23.90220925	     36.12662160	    115.39980190
      5.05000000	     11.51060547	    -14.77347620	    -24.36516958	      2.84543682	      1.04930849	      0.62149573	     -5.48681858	      5.12049898	     -7.61260921	     23.58356345	     18.67835990	     12.10385521	      0.00000000	      0.64302152	      4.36924556	      7.13934207	     21.51164627	      8.64293255	    -14.14622980	      0.00000000	    -13.31472104	      3.44886698	      0.59402428	     22.70767306	      2.41293473	      5.80319537	     18.29907785	    116.43975298	     17.18672302	     -2.50829451	     25.24151132	     36.00096023	    115.36668016
      5.06666670	     11.69084137	    -14.76974540	    -24.09366236	      2.84600314	      1.04924761	      0.62174580	     -5.77098616	      5.10574583	     -7.85058101	     23.50011063	     18.95285004	     11.98936147	      0.00000000	      1.11755111	      4.44594673	      6.85787887	     22.75934361	      8.53703135	    -14.48796497	      0.00000000	    -13.57507753	      3.22861325	      0.54170814	     22.68134581	      2.29842976	      5.78448549	     18.15306140	    116.49244609	     17.38595051	     -2.68859920	     25.25944750	     35.76423928	    115.32164156
      5.08333330	     10.97677816	    -14.95585999	    -23.21267376	      2.84653124	      1.04749344	      0.62087376	     -5.08994391	      5.71774768	     -8.85862905	     23.61364934	     18.86483206	     11.73284560	      0.00000000	      2.87099077	      4.01134612	      7.29099849	     24.77721832	      8.58489556	    -14.92112454	      0.00000000	    -13.04419466	      3.83879261	     -0.16303574	     22.71351944	      2.15419776	      5.76862424	     17.65448575	    116.75564112	     17.79302869	     -2.75634199	     25.65649575	     34.85641950	    115.15899434
      5.10000000	     11.03380147	    -14.88297751	    -22.89625795	      2.84749191	      1.04715134	      0.62143091	     -5.24088526	      5.74223761	     -9.01181839	     23.54558046	     19.22481557	     11.51728075	      0.00000000	      3.22644912	      4.01099486	      6.90533052	     25.52929403	      8.38136886	    -15.04529739	      0.00000000	    -13.04512719	      3.67891283	     -0.37807311	     22.58608933	      2.09840962	      5.77939160	     17.62722198	    116.80233025	     17.92237484	     -3.11102131	     25.49345248	     34.45166420	    115.09774355
      5.11666670	     10.92831841	    -14.75825114	    -22.50596360	      2.84853395	      1.04677257	      0.62216565	     -5.21779385	      5.81748361	     -9.17424147	     23.43264582	     19.31712080	     11.23133107	      0.00000000	      3.67451180	      3.95841315	      6.74896901	     26.12239815	      7.88267337	    -14.80893434	      0.00000000	    -12.77513457	      3.54936506	     -0.84791808	     22.38255473	      2.12053174	      5.80525452	     17.60361682	    116.85501537	     18.06379822	     -3.43688771	     25.22785276	     33.72067361	    115.03546906
      5.13333330	     10.50602722	    -14.61694264	    -21.83905613	      2.84999504	      1.04593140	      0.62290456	     -4.86451750	      6.09565852	     -9.48410344	     23.34508952	     19.14814957	     10.48309083	      0.00000000	      4.40333588	      3.81244140	      7.09871767	     26.75728677	      7.47551880	    -13.87149262	      0.00000000	    -12.01139764	      3.54867657	     -1.59899949	     21.97046079	      2.17195610	      5.94521167	     17.63258615	    116.98851708	     18.20139587	     -3.55467707	     24.64383845	     32.61532054	    114.96780871
      5.15000000	      9.98797473	    -14.88775046	    -21.35593827	      2.85133672	      1.04538080	      0.62433663	     -4.77945373	      6.87758102	     -9.60437460	     22.85985322	     19.04345543	      9.71947480	      0.00000000	      5.46965809	      2.61740660	      5.21781375	     28.48925102	     10.55649719	     -9.52787285	      0.00000000	    -11.38235115	      3.98681583	     -2.41451464	     21.67444888	      2.25442362	      6.28767205	     17.77052556	    117.37208111	     17.97205588	     -3.74256498	     23.54732791	     32.05666538	    115.00797121
      5.16666670	      9.98370289	    -14.85647922	    -21.04356704	      2.85266303	      1.04577358	      0.62573332	     -5.14101302	      7.17920471	     -9.07506610	     22.26804483	     18.77712454	      8.90812977	      0.00000000	      5.67745001	      2.11166885	      3.67686124	     29.39629845	     12.26474982	     -5.41441872	      0.00000000	    -11.05635703	      3.87785463	     -2.85442683	     21.30296966	      2.26383158	      6.82014204	     17.86417229	    117.76666429	     17.98941545	     -3.86316266	     22.63788227	     31.27337714	    115.26386879
      5.18333330	      9.87030788	    -14.92973071	    -20.83146063	      2.85380371	      1.04625682	      0.62699733	     -5.45714070	      7.59523122	     -8.60042577	     21.58561039	     18.31648567	      8.01068104	      0.00000000	      5.84164969	      1.47260708	      2.45190616	     30.09445581	     13.41133718	     -2.15254703	      0.00000000	    -10.69706665	      3.95361042	     -3.14003150	     20.93223111	      2.16883509	      7.29785968	     18.01419838	    118.09563303	     18.07595142	     -3.87038077	     21.58894423	     30.43620057	    115.60179304
      5.20000000	      9.90597052	    -14.64601344	    -20.65445195	      2.85547232	      1.04677918	      0.62766642	     -5.68264759	      7.42581980	     -8.47500328	     21.20290532	     18.33288279	      7.61151724	      0.00000000	      5.66064434	      1.68154892	      2.42810599	     30.18144322	     13.61537026	     -1.32284113	      0.00000000	    -10.28346786	      3.72043922	     -3.28930219	     20.46764940	      2.04574037	      7.57712955	     18.26018627	    118.21665061	     18.18540671	     -3.80186184	     21.00058981	     29.47479551	    115.64466707
      5.21666670	     10.07912805	    -14.84410687	    -20.43976189	      2.85674608	      1.04764640	      0.62860691	     -6.42742665	      7.77381139	     -8.25232205	     20.38085051	     17.92071779	      7.21440954	      0.00000000	      5.26542165	      1.24911239	      1.65960630	     30.42484112	     14.36783922	      0.43125819	      0.00000000	    -10.30795800	      3.86068816	     -3.25146861	     20.17496167	      1.75029995	      8.63165885	     18.43562130	    118.68735161	     18.24392572	     -3.49079376	     19.45153510	     28.95856585	    116.06292403
      5.23333330	     10.16441502	    -14.62382171	    -20.07546723	      2.85841386	      1.04795965	      0.62898245	     -6.71540280	      7.64170988	     -8.38868728	     20.03728465	     17.94327157	      6.98093339	      0.00000000	      5.05123277	      1.43772062	      1.63703010	     30.39134215	     14.41212886	      1.32199256	      0.00000000	     -9.98962455	      3.64298954	     -3.37516710	     19.70312377	      1.55573859	      8.95105152	     18.80367614	    118.80651331	     18.46416389	     -3.20271164	     18.85604160	     28.03342975	    116.16320501
      5.25000000	     10.38870017	    -14.56428802	    -19.73985746	      2.86002293	      1.04891953	      0.62962416	     -7.43784772	      7.65014513	     -8.57028961	     19.24589502	     17.78367314	      6.97770165	      0.00000000	      4.55448722	      1.36279598	      1.10428524	     30.22962660	     14.31428921	      2.70377584	      0.00000000	     -9.91362956	      3.54111119	     -3.30458529	     19.24253046	      1.24952017	      9.64367781	     19.19700703	    119.03062039	     18.72172441	     -2.76417086	     17.92921706	     27.06984293	    116.35397644
      5.26666670	     10.70034664	    -14.57850408	    -19.69646403	      2.86145538	      1.05045760	      0.63088488	     -8.44345042	      7.74741753	     -8.10601178	     18.12905898	     17.40488837	      7.00623151	      0.00000000	      3.85889765	      1.11951045	     -0.04932037	     30.05644317	     13.86457955	      4.08844857	      0.00000000	     -9.99960901	      3.44461570	     -3.21763939	     18.99901087	      1.01647338	     11.14006404	     19.28369856	    119.42081694	     18.73316471	     -2.52830319	     16.95298775	     26.45344099	    116.98110249
      5.28333330	     10.79214143	    -14.32415252	    -19.46160370	      2.86298819	      1.05131495	      0.63166218	     -8.96077137	      7.63271501	     -7.98020181	     17.32751199	     17.21301191	      6.85048938	      0.00000000	      3.55285739	      1.21984734	     -0.49204057	     29.98666096	     13.50547144	      4.73274299	      0.00000000	     -9.73197411	      3.20118207	     -3.19161335	     18.50427317	      0.84224350	     11.94827384	     19.71323981	    119.58964682	     19.05499506	     -2.25791776	     16.42429446	     25.30585485	    117.19601305
